<?xml version="1.0" standalone="no"?>
<!DOCTYPE svg PUBLIC "-//W3C//DTD SVG 20010904//EN"
 "http://www.w3.org/TR/2001/REC-SVG-20010904/DTD/svg10.dtd">
<svg version="1.0" xmlns="http://www.w3.org/2000/svg"
 width="300.000000pt" height="300.000000pt" viewBox="0 0 300.000000 300.000000"
 preserveAspectRatio="xMidYMid meet">
<metadata>
Created by potrace 1.10, written by Peter Selinger 2001-2011
</metadata>
<g transform="translate(0.000000,300.000000) scale(0.050000,-0.050000)"
fill="#000000" stroke="none">
<path d="M3789 5792 c-279 -225 -629 -700 -629 -853 0 -13 -13 -51 -28 -86
-15 -35 -33 -79 -40 -99 -15 -45 -57 -23 -44 23 26 95 34 232 13 211 -12 -12
-27 -102 -33 -200 -16 -283 -27 -348 -59 -348 -22 0 -27 18 -20 75 5 41 15
168 21 281 7 113 17 221 23 240 8 22 1 19 -21 -10 -24 -33 -36 -109 -46 -297
-9 -183 -20 -256 -39 -263 -15 -6 -27 -33 -27 -60 0 -37 8 -47 31 -38 34 13
21 -326 -14 -349 -9 -6 -8 -42 3 -80 28 -98 25 -106 -23 -61 -30 29 -45 71
-50 146 -12 150 -16 168 -44 203 -14 17 -24 47 -21 67 8 57 -24 206 -44 206
-10 0 -19 -20 -20 -45 0 -25 -4 -36 -8 -25 -4 11 -36 112 -71 225 -35 113 -68
205 -73 205 -17 0 18 -207 56 -329 20 -66 32 -124 27 -129 -24 -23 -59 53
-152 330 -55 164 -109 307 -119 317 -31 33 -19 -72 22 -197 46 -135 48 -152
20 -152 -11 0 -20 11 -20 24 0 21 -192 413 -213 435 -5 6 -16 -2 -25 -16 -13
-20 -27 -12 -58 32 -56 78 -342 333 -357 318 -7 -6 34 -63 91 -125 108 -118
118 -147 39 -109 -26 13 9 -30 78 -94 207 -194 140 -189 -78 6 -67 60 -132
109 -145 109 -12 0 -9 -9 7 -19 17 -10 26 -23 20 -28 -25 -24 -303 140 -418
247 -210 195 -211 127 -1 -78 114 -112 344 -242 620 -350 17 -7 -15 -7 -70 0
-55 6 -156 39 -225 73 -69 33 -131 56 -137 49 -20 -20 196 -131 402 -206 110
-41 224 -90 253 -111 29 -20 65 -37 79 -37 21 0 21 -5 2 -24 -20 -20 -33 -20
-64 0 -22 13 -136 60 -255 104 -118 44 -233 89 -255 99 -91 42 -236 101 -248
100 -58 -3 344 -205 535 -268 57 -19 98 -42 92 -52 -6 -10 -34 -8 -65 4 -82
32 -269 79 -277 70 -11 -10 181 -79 373 -135 168 -49 340 -129 340 -158 0 -20
-43 -7 -150 46 -116 57 -610 142 -610 105 0 -12 29 -22 65 -23 90 -3 563 -121
634 -158 69 -35 109 -85 49 -61 -69 27 -307 91 -342 91 -65 0 4 -40 125 -71
65 -17 164 -53 219 -80 110 -54 96 -54 -145 1 -35 8 -74 27 -87 42 -13 16 -41
28 -64 28 -39 0 -39 -3 10 -55 28 -30 62 -88 75 -128 22 -72 72 -133 92 -113
8 9 -26 95 -73 182 -24 45 47 31 182 -36 50 -25 113 -52 140 -60 63 -18 180
-105 180 -133 0 -11 -48 6 -106 39 -109 62 -293 132 -308 117 -4 -5 35 -30 88
-56 l96 -47 -70 -12 -70 -12 84 -15 c89 -17 218 -85 199 -105 -7 -7 6 -41 28
-77 24 -39 34 -79 26 -100 -10 -24 -6 -31 10 -21 12 8 23 27 23 43 0 16 5 29
11 29 18 0 149 -109 149 -124 0 -18 -186 -11 -200 8 -32 42 -542 18 -780 -37
-191 -43 -200 -47 -200 -78 0 -20 -16 -25 -60 -16 -45 9 -60 5 -60 -18 0 -17
-16 -42 -35 -58 -31 -24 -32 -23 -10 5 41 53 6 58 -112 14 -118 -43 -203 -105
-203 -148 0 -41 -85 -93 -103 -63 -23 37 -185 -56 -270 -155 -38 -44 -77 -87
-87 -96 -323 -297 -458 -537 -472 -842 -14 -323 31 -376 69 -82 41 314 135
519 228 499 44 -10 55 -5 56 24 0 50 46 107 85 107 17 0 59 34 93 75 54 66 61
69 61 30 0 -25 -12 -45 -26 -45 -14 0 -27 -18 -29 -40 -2 -22 -5 -62 -7 -89
-3 -46 -5 -47 -50 -18 -55 36 -103 19 -67 -25 14 -16 15 -28 4 -28 -41 0 -117
-270 -95 -340 20 -64 43 -31 68 100 34 169 64 152 49 -27 -8 -101 -5 -152 10
-161 15 -10 23 6 23 45 0 87 44 263 66 263 10 0 12 -16 5 -35 -30 -76 -35
-374 -9 -435 l27 -60 5 90 c10 157 45 468 59 520 13 50 13 50 -30 12 -24 -21
-43 -31 -43 -22 0 17 103 110 122 110 6 0 3 -56 -7 -125 -13 -84 -12 -158 2
-225 12 -55 21 -113 19 -130 -5 -65 5 -126 19 -112 8 9 21 134 27 279 13 267
73 503 153 597 16 18 23 43 16 55 -7 11 -3 21 10 21 15 0 19 18 11 50 -7 29
-4 50 8 50 11 0 20 -17 20 -38 0 -21 9 -42 20 -45 12 -4 4 -41 -18 -87 -27
-55 -42 -143 -50 -280 l-11 -200 40 100 c21 55 39 113 39 129 0 15 9 56 20 90
11 33 43 142 72 241 28 99 60 190 70 202 19 23 4 48 -29 48 -11 0 -14 -5 -8
-12 6 -6 2 -38 -9 -71 l-21 -59 -38 41 c-36 38 -36 45 -8 73 17 17 26 39 21
49 -12 19 31 99 52 99 8 0 18 -19 24 -42 6 -23 20 -37 30 -30 60 37 23 -209
-62 -411 -30 -73 -26 -247 6 -227 8 5 34 93 58 195 24 103 69 229 102 285 69
117 74 102 23 -73 -36 -121 -49 -398 -20 -427 7 -6 18 46 26 116 16 153 110
438 148 450 30 10 21 -38 -29 -146 -40 -87 -74 -352 -48 -378 13 -13 20 -1 20
40 0 141 328 748 404 748 11 0 6 -20 -12 -45 -18 -25 -52 -85 -75 -135 -23
-49 -53 -103 -67 -120 -25 -30 -98 -419 -82 -435 24 -24 52 25 52 92 0 99 131
420 197 484 109 105 166 86 73 -25 -53 -62 -67 -125 -26 -111 14 4 56 52 94
106 84 121 125 152 241 183 105 28 121 21 71 -34 -46 -51 -28 -71 33 -38 71
38 143 42 129 7 -15 -41 1 -37 100 26 48 30 83 66 78 80 -5 14 2 25 16 25 45
-1 75 -33 62 -67 -7 -18 1 -54 17 -79 17 -24 37 -85 45 -134 8 -49 27 -107 42
-130 14 -22 62 -189 105 -370 205 -866 220 -983 121 -997 -58 -8 -101 -43 -53
-43 18 0 55 9 84 20 40 15 51 13 51 -10 0 -17 -17 -30 -39 -30 -21 0 -44 -9
-51 -20 -7 -12 -59 -44 -116 -73 -57 -29 -108 -58 -114 -65 -5 -6 -80 -65
-166 -130 -103 -78 -149 -125 -136 -138 13 -13 41 -1 84 34 44 38 68 47 79 31
16 -26 119 30 119 66 0 11 19 15 43 8 46 -12 111 45 224 194 73 97 80 87 75
-102 -4 -119 -12 -159 -37 -173 -18 -10 -52 -39 -76 -65 -52 -56 -83 -60 -95
-12 -5 20 -10 8 -12 -25 -1 -34 -24 -84 -52 -114 -27 -30 -50 -60 -50 -67 0
-8 -31 -57 -70 -109 -85 -116 -92 -168 -11 -91 l59 56 10 -47 c20 -93 24 -198
8 -198 -22 0 -20 -96 3 -175 10 -37 11 -69 1 -75 -10 -6 -29 27 -41 74 -41
149 -41 150 -62 98 -11 -31 -10 -104 4 -200 28 -191 19 -466 -16 -477 -14 -5
-25 6 -25 23 0 18 -13 32 -30 32 -34 0 -42 93 -9 104 29 9 51 236 23 236 -26
0 -54 71 -62 156 -1 15 -11 21 -22 14 -12 -7 -38 27 -60 75 -54 121 -184 263
-287 313 -129 63 -573 61 -573 -3 0 -13 45 -16 125 -8 l125 12 -65 -33 c-80
-41 -85 -75 -9 -60 31 6 65 13 75 15 71 14 87 -8 21 -28 -99 -30 -118 -69 -28
-58 51 6 59 3 36 -14 -22 -15 22 -20 163 -16 107 3 200 -1 208 -9 29 -29 -49
-109 -128 -133 -108 -32 -135 -73 -36 -55 98 19 93 -15 -8 -48 -123 -41 -67
-57 111 -31 100 14 150 29 133 39 -14 9 -22 33 -17 53 7 26 1 33 -21 24 -25
-9 -26 -4 -7 32 26 49 62 57 62 15 0 -16 9 -32 20 -35 12 -4 24 -36 29 -72 4
-35 13 -73 20 -83 6 -11 2 -25 -10 -33 -14 -8 -6 -30 24 -62 39 -41 41 -52 17
-67 -24 -15 -25 -23 -5 -43 37 -37 30 -57 -20 -57 -82 -1 -111 -35 -49 -58 59
-23 66 -42 30 -78 -19 -19 -19 -24 0 -24 13 0 24 -9 24 -20 0 -22 -79 -27
-128 -8 -18 7 -32 20 -32 30 0 18 -53 83 -167 207 -56 61 -54 32 3 -34 17 -19
24 -41 17 -48 -7 -8 -16 -10 -19 -5 -89 121 -147 182 -195 206 -61 30 -62 16
-3 -53 63 -73 -1 -59 -81 18 -89 85 -173 147 -199 147 -35 0 -13 -33 44 -67
33 -19 60 -44 60 -54 0 -27 -32 -24 -64 6 -14 14 -75 41 -136 61 -60 20 -141
51 -179 68 -152 70 -640 4 -864 -116 -73 -38 -16 -54 88 -24 161 45 376 84
465 83 l80 -1 -84 -23 c-46 -13 -91 -31 -100 -40 -9 -10 2 -13 24 -6 86 25
415 74 426 64 6 -6 -1 -11 -15 -11 -14 0 -20 -13 -14 -30 10 -24 4 -27 -23
-12 -68 36 -464 -68 -464 -122 0 -22 8 -21 94 17 129 55 154 64 221 77 104 21
76 -23 -31 -49 -53 -13 -122 -45 -155 -71 -67 -55 -44 -63 66 -22 287 106 477
123 290 26 -120 -62 -135 -81 -40 -51 90 28 114 36 125 37 5 1 40 15 79 31 47
19 73 22 82 7 15 -25 20 -21 -85 -67 -79 -34 -199 -135 -126 -106 196 80 270
116 276 134 11 31 38 26 51 -9 9 -23 -18 -44 -101 -81 -61 -27 -107 -55 -100
-61 11 -12 123 17 204 52 22 10 67 21 100 26 33 5 74 14 90 21 42 17 123 -55
108 -95 -7 -18 -30 -32 -51 -32 -22 0 -63 -13 -93 -28 -40 -21 -148 -29 -413
-30 -197 -2 -363 -7 -368 -12 -28 -28 789 -7 826 21 50 37 91 37 91 -1 0 -48
730 -45 749 3 7 19 1 42 -13 52 -18 13 -15 15 11 7 20 -7 40 -12 45 -12 4 0 8
-13 8 -28 0 -36 46 -53 82 -30 15 9 75 18 132 18 113 0 159 31 77 52 -77 19
-65 63 14 52 44 -6 59 -2 45 12 -42 43 -170 36 -170 -10 0 -27 -5 -29 -25 -9
-20 20 -19 29 5 44 24 15 25 23 5 35 -49 32 57 67 145 48 72 -15 80 -22 76
-74 -3 -32 5 -69 16 -83 12 -14 15 -44 8 -66 -11 -35 -4 -41 49 -41 45 0 61 9
61 35 -1 75 -26 125 -62 125 -21 0 -38 8 -38 19 0 32 41 45 69 22 40 -34 54 4
28 78 -30 86 -12 95 60 30 58 -51 123 -195 123 -273 0 -49 41 -46 54 5 l11 41
29 -41 c19 -28 50 -41 100 -41 69 0 71 2 39 37 -44 48 -46 99 -3 63 56 -47 59
0 3 56 -45 45 -57 49 -73 25 -10 -17 -24 -24 -32 -16 -28 28 36 75 84 63 64
-16 61 19 -3 49 -28 13 -46 32 -39 43 34 55 279 -197 265 -272 -7 -37 -1 -48
27 -48 41 0 41 2 90 270 18 99 46 206 63 239 16 32 52 122 78 200 73 214 155
410 172 411 9 0 13 -73 10 -163 -3 -111 3 -165 18 -171 24 -8 62 183 52 259
-3 21 9 35 28 35 29 0 31 -24 19 -217 -13 -200 -10 -223 29 -290 23 -40 45
-96 48 -124 3 -29 19 -66 35 -82 26 -26 27 -17 9 71 -22 107 -11 142 33 105
19 -15 33 -16 48 -1 15 15 25 -2 35 -56 7 -42 30 -125 50 -186 20 -60 42 -134
49 -162 14 -62 83 -154 102 -135 7 7 4 30 -6 50 -11 20 -32 64 -46 97 -15 33
-30 67 -34 75 -4 8 1 15 11 15 10 0 44 -52 75 -115 68 -137 67 -135 82 -120 7
7 -11 56 -38 109 -143 272 -226 526 -133 406 66 -87 42 -24 -31 80 -80 113
-82 120 -39 120 24 0 19 18 -25 78 -41 58 -62 73 -81 58 -18 -15 -25 -12 -25
12 0 17 0 38 -1 46 -1 32 74 20 116 -19 90 -84 42 45 -59 162 -32 37 -53 73
-46 80 7 7 46 -28 86 -77 41 -49 95 -112 120 -139 l45 -51 -31 79 c-32 81 -53
111 -159 227 -39 43 -48 62 -26 53 63 -24 22 75 -59 144 l-51 42 42 42 c22 22
55 68 72 102 19 37 48 61 72 61 26 0 39 14 39 40 0 22 7 40 15 40 23 0 125
-99 125 -121 0 -10 9 -19 20 -19 31 0 24 44 -20 135 -72 149 -5 153 70 5 47
-92 90 -130 90 -79 0 12 23 -4 52 -35 l51 -56 -11 65 c-27 160 94 -53 156
-275 34 -118 112 -255 112 -196 0 18 -8 54 -17 80 -47 127 -49 168 -7 129 28
-24 42 -28 48 -12 4 14 53 -64 109 -172 85 -167 190 -301 137 -177 -8 21 -28
74 -44 118 -16 44 -41 107 -56 140 -80 183 -81 259 -1 159 51 -64 88 -58 53 8
-27 51 -28 89 -2 73 61 -38 5 52 -89 143 -98 95 -126 154 -50 106 45 -28 67
-22 39 11 -23 27 -200 119 -328 169 -100 39 -38 48 79 12 116 -37 177 -32 69
6 -59 20 -61 103 -3 103 26 0 63 96 63 161 0 32 -9 59 -20 59 -11 0 -20 9 -20
20 0 28 46 25 87 -5 25 -19 38 -65 45 -165 12 -160 19 -190 45 -190 79 0 122
484 49 564 -25 28 -28 42 -10 60 35 35 62 -1 82 -105 16 -82 18 -75 20 75 l2
164 -65 -22 c-36 -12 -74 -29 -84 -39 -31 -28 -91 -19 -91 13 0 17 9 30 20 30
39 0 230 130 199 135 -48 10 -202 -85 -315 -193 -103 -99 -151 -98 -77 3 22
30 33 61 24 70 -19 19 -174 -152 -255 -280 -33 -52 -68 -90 -78 -84 -18 11 12
66 96 181 69 93 56 99 -41 20 -88 -73 -149 -173 -199 -330 -35 -107 -62 -77
-43 48 18 121 -17 117 -62 -8 -19 -53 -52 -118 -74 -145 l-38 -47 12 86 c17
120 -11 93 -90 -88 -66 -151 -67 -152 -101 -111 -34 43 -31 108 7 158 14 17 2
34 -42 60 -42 24 -86 83 -137 185 -42 82 -103 187 -136 233 -33 46 -100 147
-149 226 -49 78 -125 181 -170 229 -45 48 -120 142 -168 210 -241 338 -802
579 -699 301 15 -39 22 -42 36 -19 10 16 22 25 27 19 21 -21 113 -239 113
-267 0 -16 10 -36 23 -44 16 -10 19 3 8 44 -23 87 -30 270 -11 258 23 -14 68
-176 110 -390 44 -224 72 -320 95 -320 11 0 14 36 6 85 -7 47 -16 121 -21 165
-26 259 -37 332 -53 342 -21 13 -23 108 -2 108 22 0 105 -188 105 -236 0 -23
13 -54 29 -70 16 -16 31 -77 35 -136 5 -94 12 -109 50 -114 34 -5 48 -25 58
-80 13 -67 37 -103 71 -104 23 0 38 100 20 135 -10 19 -23 80 -28 135 l-11
100 38 -47 c21 -26 38 -69 38 -96 0 -45 49 -187 65 -187 18 0 9 91 -16 164
-57 161 4 110 89 -74 36 -77 77 -149 92 -161 20 -15 -9 -21 -107 -21 -104 0
-159 -11 -253 -55 -227 -106 -290 -140 -322 -175 -63 -70 7 -52 170 44 189
112 213 115 112 18 -81 -79 -92 -119 -20 -72 62 41 63 31 0 -67 -63 -101 -30
-128 57 -46 35 33 83 71 108 83 25 13 45 37 45 54 0 17 11 27 25 22 14 -4 23
-27 20 -50 -3 -33 4 -39 30 -30 86 32 126 71 114 114 -7 23 -17 58 -22 77 -5
19 0 35 11 35 11 0 30 -38 42 -85 42 -165 56 -185 100 -145 22 20 33 45 26 56
-7 12 -2 14 13 5 13 -9 20 -32 15 -53 -6 -21 -2 -38 8 -38 10 0 18 -9 18 -19
0 -11 -13 -15 -29 -9 -40 16 -198 -101 -260 -191 -63 -91 -66 -122 -6 -66 63
58 160 82 142 35 -11 -30 -7 -32 30 -12 26 14 43 43 43 72 0 79 81 122 123 66
46 -61 41 -120 -7 -94 -20 11 -36 32 -36 48 0 43 -31 52 -35 9 -1 -21 6 -43
16 -50 10 -6 1 -30 -21 -54 -22 -23 -40 -52 -39 -64 0 -11 15 -3 32 19 19 25
35 31 40 17 5 -12 26 -18 48 -13 56 15 48 -24 -14 -73 -50 -39 -56 -39 -89 -9
-20 18 -54 28 -76 23 -22 -6 -82 -2 -133 9 -70 15 -98 14 -109 -4 -11 -17 -19
-18 -29 -2 -7 12 -4 22 8 22 32 0 25 34 -9 47 -58 22 -101 -9 -58 -42 33 -25
11 -27 -185 -15 -224 14 -284 -1 -229 -56 43 -43 26 -94 -33 -94 -40 1 -47 5
-27 18 24 16 24 23 -3 50 -17 17 -37 86 -45 156 -17 150 -94 509 -137 636 -17
50 -48 167 -71 260 -22 94 -67 250 -101 349 -61 178 -78 284 -42 262 10 -6 23
5 30 26 26 83 330 132 481 77 44 -16 109 -24 145 -19 l64 9 -41 53 c-45 58
-149 100 -131 54 8 -21 -4 -22 -60 -5 -81 25 -40 55 83 63 33 2 83 10 110 18
49 15 49 14 10 -17 -39 -31 -38 -34 54 -121 51 -49 127 -145 168 -214 41 -69
95 -158 121 -198 25 -41 51 -97 58 -125 8 -29 22 -52 33 -52 13 0 14 21 5 55
-8 30 -17 100 -18 155 -2 55 -14 120 -27 144 -37 68 -30 97 14 58 26 -24 42
-28 52 -12 17 27 -25 80 -62 80 -35 0 -37 53 -3 67 15 6 12 10 -9 11 -18 1
-39 10 -45 20 -6 10 12 16 39 15 31 -2 55 -18 63 -42 15 -49 306 -496 334
-515 40 -26 55 8 24 55 -59 91 -30 90 64 -2 52 -50 118 -104 145 -119 28 -15
67 -50 88 -78 42 -58 125 -74 104 -20 -7 17 -12 35 -12 40 0 4 -13 8 -29 8
-40 0 -303 255 -282 274 9 9 21 4 26 -10 10 -30 164 -132 178 -118 5 5 -23 29
-63 54 -40 24 -87 68 -105 97 -18 29 -67 85 -109 125 -86 81 -93 99 -36 84
166 -44 -102 180 -292 243 -159 52 -164 57 -88 71 l70 13 -56 24 c-31 12 -88
23 -126 23 -38 0 -102 14 -143 31 -40 16 -84 26 -98 21 -14 -6 -31 -1 -38 9
-6 11 -19 15 -29 9 -49 -30 -300 -63 -300 -39 0 30 146 81 285 100 52 8 95 21
95 30 0 8 36 22 80 29 91 15 89 50 -2 50 -33 0 -55 -8 -49 -18 6 -9 -10 -23
-34 -29 -67 -18 -89 -14 -50 9 19 11 35 33 35 49 0 21 26 29 100 29 92 0 127
21 81 49 -25 16 -286 -26 -310 -50 -23 -23 -71 -25 -71 -4 1 49 141 90 341 99
254 11 285 -6 424 -241 111 -186 134 -116 25 77 -39 72 -62 130 -49 130 77 0
378 -411 379 -517 1 -26 4 -27 18 -6 37 59 -42 263 -146 378 -39 43 -66 84
-61 90 18 18 171 -24 202 -56 17 -16 41 -29 55 -29 98 0 154 -172 167 -505 6
-151 17 -275 25 -275 39 0 77 282 80 598 0 5 31 -27 69 -70 61 -69 67 -72 57
-28 -17 73 -148 240 -231 294 -14 9 -70 64 -125 123 -116 122 -73 120 114 -6
100 -68 149 -75 128 -19 -20 52 31 28 134 -62 101 -88 159 -110 184 -70 7 11
3 20 -9 20 -11 0 -21 12 -21 27 0 41 -70 96 -105 82 -17 -6 -36 -3 -43 8 -6
10 2 24 19 31 18 6 26 21 19 32 -36 59 44 3 181 -125 85 -79 164 -145 177
-145 68 -1 131 -93 264 -387 37 -81 41 -85 68 -50 16 20 20 30 10 21 -10 -8
-29 31 -45 90 -34 134 -129 296 -246 420 -81 85 -103 123 -47 81 11 -8 -34 38
-100 103 -139 135 -241 185 -452 222 -82 15 -172 32 -200 39 -65 17 -404 16
-520 -2 -82 -12 -87 -10 -63 20 51 61 -20 38 -170 -54 -77 -48 -183 -99 -234
-114 -52 -16 -121 -52 -153 -82 -79 -72 -76 -50 10 77 39 58 70 111 70 120 0
29 -243 -226 -309 -324 -79 -118 -167 -205 -144 -142 37 100 -204 -219 -251
-333 -21 -49 -69 -44 -83 10 -19 69 -15 95 13 95 15 0 64 71 110 158 56 104
130 203 219 290 73 73 123 132 109 132 -26 0 -200 -172 -284 -280 -27 -36 -70
-87 -94 -113 -25 -26 -39 -61 -33 -77 6 -17 1 -30 -11 -30 -12 0 -22 13 -22
28 0 16 -5 43 -12 60 -8 21 -1 32 18 32 17 0 59 47 95 105 35 58 136 175 224
260 88 85 149 155 136 155 -14 0 -82 -55 -153 -123 -150 -145 -185 -141 -81 9
71 104 97 166 49 118 -13 -13 -32 -24 -42 -24 -34 0 52 109 183 230 72 66 156
143 187 172 31 29 56 59 56 67 0 18 -221 -154 -342 -266 -48 -46 -95 -83 -103
-83 -73 -1 161 242 356 370 93 61 169 116 169 121 0 24 -48 0 -200 -101 -91
-60 -169 -110 -173 -110 -61 0 158 213 359 348 96 65 180 126 187 137 26 42
-86 -15 -250 -128 -95 -65 -175 -110 -179 -99 -8 23 138 174 256 264 183 139
258 203 269 231 15 41 -78 -23 -303 -207 -98 -81 -140 -75 -62 9 27 30 76 86
108 124 77 90 107 121 179 181 75 63 100 100 65 99 -14 -1 -107 -67 -207 -147z
m771 -1323 c0 -33 46 -38 99 -9 31 16 36 12 34 -31 -2 -29 -13 -46 -26 -40
-13 4 -28 -4 -34 -19 -8 -21 -26 -23 -77 -9 -36 10 -68 19 -70 19 -3 0 1 -16
8 -35 11 -29 9 -31 -17 -10 -17 13 -35 20 -41 14 -6 -5 -21 3 -33 18 -17 20
-45 24 -99 14 -65 -12 -76 -9 -79 23 -3 44 150 41 204 -4 27 -21 31 -17 31 27
0 38 8 49 31 40 17 -7 29 -4 27 6 -6 35 2 49 22 37 11 -7 20 -25 20 -41z m525
-91 c-12 -46 -63 -65 -98 -36 -37 31 -34 50 16 97 50 46 100 8 82 -61z m-1122
-499 c-42 -17 -44 -24 -21 -54 22 -29 19 -28 -17 3 -53 45 -41 72 31 71 l54
-2 -47 -18z m-1683 -179 c0 -11 -12 -20 -28 -20 -15 0 -39 -14 -53 -31 -51
-62 -89 -69 -89 -17 0 26 11 48 25 48 14 0 25 9 25 20 0 11 27 20 60 20 33 0
60 -9 60 -20z m-580 -142 c0 -12 14 -17 30 -11 22 9 30 -2 30 -40 0 -41 -7
-48 -35 -37 -19 8 -46 15 -60 16 -31 1 -34 34 -3 34 16 0 15 9 -2 30 -20 25
-19 30 8 30 17 0 32 -10 32 -22z m-4 -145 c5 -22 -6 -33 -33 -33 -30 0 -37 10
-29 41 13 47 53 42 62 -8z m2111 -353 l12 -130 -29 80 c-31 84 -42 296 -11
220 8 -22 21 -98 28 -170z m-2761 133 c35 -53 15 -105 -34 -87 -20 8 -32 36
-32 73 0 73 24 78 66 14z m-161 -81 c49 -37 45 -92 -7 -92 -31 0 -39 9 -30 33
7 17 2 44 -10 60 -29 34 1 34 47 -1z m175 -123 c0 -27 -75 -61 -93 -42 -6 5
-5 28 2 49 14 45 91 39 91 -7z m4740 -559 c0 -16 9 -30 20 -30 11 0 20 -14 20
-32 0 -22 11 -28 34 -19 29 11 28 6 -5 -33 -21 -25 -40 -49 -42 -52 -16 -32
-78 87 -71 136 9 61 44 85 44 30z m-271 -318 c44 -153 46 -150 -84 -139 -172
15 -179 20 -125 77 26 28 41 56 34 63 -13 13 100 107 128 107 9 0 29 -49 47
-108z m-961 -83 c9 -34 2 -61 -19 -83 -18 -17 -28 -49 -22 -69 5 -20 1 -42 -9
-48 -10 -6 -18 -3 -18 8 0 11 -5 33 -11 49 -6 16 4 44 22 62 22 22 29 50 21
83 -7 27 -5 49 5 49 10 0 24 -23 31 -51z m648 -120 c-3 -70 -23 -91 -42 -43
-14 38 7 135 28 123 9 -6 16 -42 14 -80z m-1076 11 c0 -11 19 -20 41 -20 23 0
36 -9 29 -20 -7 -11 1 -25 17 -32 46 -17 17 -128 -33 -128 -13 0 -55 -32 -92
-70 -37 -39 -75 -70 -85 -70 -9 0 -17 -12 -17 -27 0 -15 -23 -44 -51 -65 -28
-21 -69 -69 -91 -108 -41 -70 -41 -70 50 19 116 113 136 95 44 -39 -114 -165
-85 -158 94 22 238 241 394 322 207 108 -96 -111 -142 -187 -124 -206 7 -6 39
20 71 60 52 63 200 171 200 145 0 -5 -31 -50 -70 -100 -43 -57 -70 -115 -70
-151 0 -32 -8 -58 -18 -58 -71 0 -145 -260 -148 -524 -5 -369 33 -413 79 -91
6 41 19 80 29 86 10 6 18 56 18 110 0 102 39 279 61 279 7 0 24 -25 39 -55
l26 -55 15 50 c8 28 16 75 17 106 2 51 84 154 124 154 19 0 12 -82 -11 -119
-11 -17 -10 -22 4 -14 19 12 -30 -142 -76 -237 -83 -172 -178 -496 -179 -610
-1 -105 -27 -135 -67 -78 -18 26 -33 57 -33 70 0 101 -413 252 -487 178 -33
-33 -51 -19 -42 34 3 18 -7 38 -21 43 -17 7 -30 70 -39 187 -7 97 -21 227 -30
289 -28 172 -9 211 219 459 39 42 96 108 128 147 62 75 112 92 112 39 0 -22
19 -12 62 31 35 35 60 66 55 70 -18 18 -110 18 -137 1 -16 -11 -83 -31 -148
-44 -64 -14 -161 -47 -214 -75 -135 -71 -138 -69 -138 81 0 113 4 129 29 109
22 -18 41 -17 89 8 91 47 146 41 82 -9 -65 -51 -36 -50 100 2 61 23 131 45
157 48 26 2 66 24 89 47 44 44 134 59 134 23z m840 -36 c0 -31 -63 -104 -81
-93 -11 6 -19 3 -19 -8 0 -11 10 -23 23 -27 46 -16 1 -116 -52 -116 -27 0 -54
8 -60 18 -15 24 71 183 92 170 8 -5 27 9 41 31 26 41 56 55 56 25z m158 -2
c32 -20 -29 -62 -90 -62 -32 0 -32 3 4 39 44 45 49 46 86 23z m-688 -22 c22
-35 -69 -140 -120 -140 -76 0 -75 31 1 98 75 66 99 74 119 42z m238 -65 c-39
-31 -56 -35 -74 -16 -35 35 60 111 98 79 23 -18 18 -30 -24 -63z m-131 -92
c-35 -57 -76 -70 -91 -30 -8 21 4 47 34 71 57 46 95 19 57 -41z m152 -14 c46
-47 38 -75 -19 -64 -28 5 -56 2 -62 -8 -14 -23 -68 -22 -68 2 0 10 18 24 40
31 22 7 40 26 40 41 0 38 29 37 69 -2z m291 6 c-1 -37 -36 -86 -51 -71 -17 18
9 96 32 96 11 0 19 -11 19 -25z m-130 -95 c24 -39 -20 -87 -48 -52 -26 30 -15
72 18 72 10 0 23 -9 30 -20z m-332 -28 c45 -2 51 -10 47 -62 -2 -33 -4 -97 -5
-143 0 -118 -46 -127 -76 -16 -17 65 -31 85 -54 76 -42 -16 -37 6 12 55 40 40
40 42 5 83 -21 23 -24 34 -9 25 15 -9 51 -17 80 -18z m1199 -42 c4 -22 18 -47
30 -55 14 -8 15 -15 2 -15 -20 0 -65 45 -98 98 -11 18 -5 24 21 19 21 -4 41
-25 45 -47z m-2121 -167 c-90 -126 -136 -153 -136 -80 0 45 205 252 216 218 3
-9 -33 -72 -80 -138z m-36 107 c0 -17 -68 -90 -84 -90 -30 0 -16 58 19 78 38
23 65 28 65 12z m-240 -89 c0 -22 -25 -62 -55 -90 -30 -28 -45 -51 -32 -51 12
0 33 14 47 30 44 53 54 34 66 -125 7 -85 23 -275 36 -422 24 -281 9 -359 -51
-278 -40 54 -191 -59 -191 -144 0 -25 -53 -28 -69 -3 -6 9 3 29 19 42 17 14
30 37 30 51 0 14 23 53 50 85 49 59 68 118 31 95 -37 -23 -137 -188 -151 -249
-7 -34 -22 -62 -32 -62 -42 0 -38 61 8 153 26 53 54 124 60 157 7 33 8 49 2
35 -6 -14 -19 -25 -29 -25 -9 0 -3 33 14 73 16 40 25 91 20 113 -6 23 3 104
20 182 17 78 34 181 37 230 6 69 23 103 83 165 87 89 87 89 87 38z m1532 -84
c38 -43 38 -43 -9 -32 -35 9 -43 5 -35 -16 8 -21 -5 -29 -49 -29 -32 0 -59 -9
-59 -20 0 -11 9 -20 20 -20 11 0 20 -13 20 -30 0 -33 -17 -37 -56 -13 -32 20
-7 93 55 158 53 56 65 56 113 2z m-513 -64 c-24 -40 -47 -73 -52 -73 -18 0 17
90 49 125 48 55 50 27 3 -52z m483 -129 c-27 -9 -29 -64 -2 -64 11 0 20 10 20
21 0 12 9 16 20 9 34 -21 22 -45 -29 -55 -59 -11 -81 59 -31 99 24 20 24 25 3
25 -24 1 -24 6 0 34 25 31 28 29 34 -14 4 -26 -3 -51 -15 -55z m-1322 -798
c27 -28 25 -30 -20 -17 -27 8 -70 14 -95 13 -45 -2 -58 18 -31 46 21 20 111
-5 146 -42z m360 -84 c0 -38 -46 -58 -73 -32 -38 38 -34 45 23 45 28 0 50 -6
50 -13z"/>
<path d="M3863 1520 c-35 -33 -63 -69 -63 -80 0 -11 -9 -20 -19 -20 -11 0 -29
-18 -41 -40 -35 -65 10 -47 83 33 37 40 83 87 102 104 19 18 35 39 35 47 0 31
-35 15 -97 -44z"/>
<path d="M560 4743 c0 -22 162 -214 219 -257 64 -50 -9 -23 -152 55 -81 45
-147 72 -147 59 0 -12 -9 -17 -21 -10 -59 37 -143 48 -116 16 24 -29 21 -31
-33 -16 -80 21 -310 30 -310 11 0 -30 192 -101 273 -101 26 0 47 -9 47 -20 0
-11 -40 -20 -89 -20 -49 0 -94 -8 -100 -18 -22 -37 196 -64 409 -51 129 8 229
5 260 -8 50 -20 50 -20 4 -22 -26 0 -41 -10 -34 -20 6 -11 38 -14 71 -8 33 7
59 3 59 -8 0 -29 -212 -105 -297 -106 -143 -3 -161 -36 -20 -38 100 -1 188 17
355 70 147 47 232 65 253 54 24 -14 11 -24 -55 -44 -47 -14 -117 -42 -156 -62
l-70 -37 70 0 c39 0 131 16 205 36 74 19 135 28 135 19 0 -21 -194 -147 -283
-183 -94 -39 -121 -78 -35 -54 34 10 72 27 85 37 13 10 55 28 93 40 39 13 141
54 227 91 132 58 166 65 215 48 76 -26 61 -45 -77 -95 -115 -42 -187 -72 -247
-102 -18 -9 -70 -26 -116 -38 -46 -13 -78 -32 -71 -42 6 -11 21 -14 31 -8 11
7 85 29 164 48 179 45 408 127 439 158 13 13 35 23 49 23 42 0 30 -39 -19 -61
-25 -10 -112 -63 -195 -118 -82 -54 -204 -127 -269 -162 -145 -76 -208 -119
-176 -119 48 0 201 71 482 225 158 87 315 159 350 162 35 2 72 9 83 16 44 26
130 37 130 17 0 -23 -26 -36 -90 -46 -43 -7 -199 -110 -299 -198 l-61 -54 83
28 c115 39 268 127 322 184 40 42 57 47 135 35 75 -11 90 -8 90 19 0 17 -9 32
-20 32 -11 0 -20 19 -20 42 0 24 -10 38 -25 33 -14 -5 -24 -24 -22 -42 4 -46
-27 -41 -53 7 -12 22 -35 40 -52 40 -17 0 -25 9 -18 19 15 24 -31 112 -98 188
-28 32 -56 74 -62 94 -6 19 -25 40 -41 47 -16 6 -29 23 -29 39 0 16 -18 33
-40 39 -41 10 -55 -14 -21 -35 10 -7 46 -65 79 -130 33 -65 72 -137 85 -159
14 -22 18 -47 10 -56 -15 -14 -253 227 -253 256 0 7 -27 46 -60 88 -33 42 -60
71 -60 66 0 -20 107 -230 145 -282 21 -31 33 -63 26 -70 -8 -8 -27 4 -42 26
-16 22 -51 67 -79 100 -102 121 -191 235 -209 267 -10 18 -25 26 -33 18 -15
-15 61 -168 145 -295 151 -225 -76 -44 -265 213 -113 152 -168 179 -95 47 31
-57 77 -125 102 -152 97 -108 110 -187 16 -104 -29 25 -77 60 -107 77 -30 16
-133 77 -230 135 -96 57 -179 104 -185 104 -36 0 11 -50 133 -142 88 -68 130
-110 110 -114 -17 -4 -73 25 -125 65 -108 83 -140 78 -57 -9 163 -170 -30 -51
-255 157 -52 49 -95 79 -95 66z m699 -382 c53 -34 9 -42 -61 -12 -62 27 -63
29 -18 30 28 0 63 -8 79 -18z"/>
<path d="M2803 4430 c-3 -128 17 -250 41 -250 19 0 11 98 -21 260 l-18 90 -2
-100z"/>
<path d="M3819 4079 c-15 -28 -10 -35 26 -34 25 0 104 -6 175 -13 l130 -14
-60 35 c-93 54 -248 69 -271 26z"/>
<path d="M5224 3987 c48 -76 107 -180 133 -232 25 -52 54 -95 64 -95 71 0
-169 441 -248 457 -26 5 -14 -27 51 -130z"/>
<path d="M5360 4082 c0 -23 7 -42 16 -42 24 0 137 -199 164 -290 31 -99 55
-127 71 -84 21 55 -46 239 -126 342 -85 112 -125 135 -125 74z"/>
<path d="M2145 3963 c-71 -61 -89 -117 -30 -93 19 8 78 30 130 47 109 38 114
48 44 80 -67 30 -69 30 -144 -34z"/>
<path d="M2442 3921 c-15 -9 -42 -12 -61 -7 -18 5 -45 -5 -59 -22 -28 -34 130
-27 165 7 23 23 -14 42 -45 22z"/>
<path d="M4220 3512 c0 -51 24 -92 52 -92 34 0 34 4 5 69 -25 55 -57 68 -57
23z"/>
<path d="M2856 3484 c-61 -40 -144 -141 -216 -263 -27 -46 -70 -109 -94 -140
-56 -70 -146 -247 -146 -287 0 -17 -11 -43 -25 -58 -44 -45 -77 -131 -194
-506 -75 -239 -125 -610 -82 -610 18 0 26 19 51 129 10 46 17 52 32 30 12 -19
14 10 6 82 -9 81 -5 119 15 140 40 42 77 133 77 191 0 28 8 45 19 39 16 -10
36 64 72 274 20 113 52 67 36 -51 -13 -99 -12 -103 23 -74 20 17 42 27 48 24
17 -9 38 73 40 160 3 102 58 81 75 -28 l13 -80 24 58 c14 32 36 136 49 232 21
148 31 174 63 174 38 0 43 14 68 167 7 43 21 93 30 110 22 41 86 304 76 314
-4 4 -31 -8 -60 -27z"/>
<path d="M4306 3358 c19 -26 40 -61 48 -78 22 -53 90 -143 100 -133 5 5 -6 33
-26 63 -19 29 -49 81 -66 115 -18 35 -45 67 -62 72 -23 7 -22 0 6 -39z"/>
<path d="M2029 3231 c-19 -40 -29 -77 -23 -83 6 -6 26 21 45 61 19 40 29 77
23 83 -6 6 -26 -21 -45 -61z"/>
<path d="M3768 2838 c6 -35 12 -71 12 -80 0 -10 9 -18 20 -18 22 0 27 79 8
128 -22 58 -53 34 -40 -30z"/>
<path d="M481 2597 c-32 -149 -51 -457 -28 -457 10 0 30 56 44 125 14 69 42
195 62 280 l36 155 -46 0 c-39 0 -49 -15 -68 -103z"/>
<path d="M4184 2408 c-45 -31 -114 -144 -98 -160 19 -20 174 143 158 167 -12
19 -26 17 -60 -7z"/>
<path d="M2372 2208 c-19 -50 -14 -292 6 -279 16 10 29 311 13 311 -4 0 -12
-14 -19 -32z"/>
<path d="M4981 1422 c-31 -21 -32 -20 66 -50 16 -5 75 -79 133 -165 68 -100
101 -137 93 -102 -29 118 135 -33 176 -163 8 -23 22 -42 32 -42 11 0 17 -7 15
-15 -2 -8 13 -46 33 -85 46 -86 67 -46 23 43 -18 35 -32 74 -32 88 0 13 -13
35 -30 49 -39 32 -38 60 0 60 17 0 46 -32 65 -71 23 -50 51 -75 89 -83 31 -6
56 -20 56 -31 0 -10 -15 -14 -32 -7 -24 9 -29 4 -20 -19 6 -18 12 -45 12 -61
0 -15 10 -28 21 -28 13 0 16 17 9 40 -7 22 -5 40 4 40 23 0 57 -79 108 -252
44 -148 91 -205 70 -83 -10 56 -5 51 38 -35 42 -84 50 -92 50 -48 1 166 -242
634 -438 845 -120 128 -450 235 -541 175z"/>
<path d="M5300 1031 c0 -14 76 -182 94 -209 34 -50 14 35 -26 110 -56 106 -68
123 -68 99z"/>
<path d="M2234 731 c-120 -43 -115 -56 16 -39 66 8 141 13 167 12 29 -3 43 5
38 21 -12 36 -132 39 -221 6z"/>
<path d="M2430 443 l-100 -33 95 -6 c83 -5 142 -44 67 -44 -76 0 -76 -60 1
-62 42 -1 97 -4 121 -6 27 -3 47 8 52 30 11 42 -32 64 -64 32 -16 -16 -22 -11
-22 22 0 24 11 44 25 45 14 0 8 13 -14 30 -45 34 -33 34 -161 -8z"/>
<path d="M4935 427 c-8 -12 -2 -57 14 -100 29 -79 36 -44 13 63 -7 35 -19 51
-27 37z"/>
<path d="M2060 141 c-16 -9 -57 -28 -90 -41 -33 -14 -51 -29 -39 -33 32 -12
176 43 185 70 8 26 -13 28 -56 4z"/>
</g>
</svg>
